<svg id="Layer_1" enable-background="new 0 0 511.828 511.828" height="512" viewBox="0 0 511.828 511.828" width="512" xmlns="http://www.w3.org/2000/svg"><path d="m54.931 0v511.828h401.967v-511.828zm371.966 481.828h-341.966v-451.828h341.967v451.828z"/><path d="m396.894 60.003h-281.959v211.335h281.959zm-140.98 119.782c-11.473 0-20.806-9.333-20.806-20.806 0-11.472 9.333-20.806 20.806-20.806s20.806 9.333 20.806 20.806c0 11.472-9.333 20.806-20.806 20.806zm-1.509 30h3.018c20.422 0 37.802 13.224 44.06 31.554h-91.138c6.258-18.33 23.638-31.554 44.06-31.554zm112.489 31.553h-34.402c-4.346-21.784-17.968-40.25-36.556-51.119 6.747-8.625 10.784-19.467 10.784-31.241 0-28.014-22.791-50.806-50.806-50.806s-50.806 22.792-50.806 50.806c0 11.774 4.037 22.616 10.784 31.241-18.588 10.869-32.21 29.335-36.556 51.119h-34.402v-151.335h221.959v151.335z"/><path d="m114.934 310.208h30.002v30h-30.002z"/><path d="m114.934 362.211h30.002v30h-30.002z"/><path d="m114.934 414.214h30.002v30h-30.002z"/><path d="m164.937 310.208h30.002v30h-30.002z"/><path d="m164.937 362.211h30.002v30h-30.002z"/><path d="m164.937 414.214h30.002v30h-30.002z"/><path d="m214.939 310.208h30.002v30h-30.002z"/><path d="m214.939 362.211h30.002v30h-30.002z"/><path d="m214.939 414.214h30.002v30h-30.002z"/><path d="m346.561 326.878c-27.754 0-50.333 22.579-50.333 50.333s22.579 50.333 50.333 50.333 50.333-22.58 50.333-50.333-22.58-50.333-50.333-50.333zm0 70.666c-11.212 0-20.333-9.122-20.333-20.333s9.121-20.333 20.333-20.333 20.333 9.122 20.333 20.333c0 11.212-9.122 20.333-20.333 20.333z"/></svg>